<mxfile host="app.diagrams.net" modified="2021-04-02T09:32:10.545Z" agent="5.0 (X11; Linux x86_64) AppleWebKit/537.36 (KHTML, like Gecko) Chrome/88.0.4324.150 Safari/537.36" etag="nCBzKX0MRGDO79mRq2-L" version="14.5.3" type="github">
  <diagram name="Page-1" id="e7e014a7-5840-1c2e-5031-d8a46d1fe8dd">
    <mxGraphModel dx="1240" dy="679" grid="1" gridSize="10" guides="1" tooltips="1" connect="1" arrows="1" fold="1" page="1" pageScale="1" pageWidth="1169" pageHeight="826" background="#ffffff" math="0" shadow="0">
      <root>
        <mxCell id="0" />
        <mxCell id="1" parent="0" />
        <mxCell id="Q4-nXhtBB_RPtPYhB7_e-42" style="edgeStyle=orthogonalEdgeStyle;rounded=0;orthogonalLoop=1;jettySize=auto;html=1;entryX=0.5;entryY=0;entryDx=0;entryDy=0;" parent="1" source="Q4-nXhtBB_RPtPYhB7_e-41" edge="1" target="Q4-nXhtBB_RPtPYhB7_e-43">
          <mxGeometry relative="1" as="geometry">
            <mxPoint x="440" y="210" as="targetPoint" />
          </mxGeometry>
        </mxCell>
        <mxCell id="Q4-nXhtBB_RPtPYhB7_e-60" style="edgeStyle=orthogonalEdgeStyle;rounded=0;orthogonalLoop=1;jettySize=auto;html=1;entryX=0.5;entryY=0;entryDx=0;entryDy=0;" parent="1" source="Q4-nXhtBB_RPtPYhB7_e-41" target="Q4-nXhtBB_RPtPYhB7_e-59" edge="1">
          <mxGeometry relative="1" as="geometry" />
        </mxCell>
        <mxCell id="Q4-nXhtBB_RPtPYhB7_e-41" value="&lt;font style=&quot;font-size: 24px&quot;&gt;User&lt;/font&gt;" style="rounded=0;whiteSpace=wrap;html=1;" parent="1" vertex="1">
          <mxGeometry x="380" y="70" width="120" height="60" as="geometry" />
        </mxCell>
        <mxCell id="Q4-nXhtBB_RPtPYhB7_e-44" style="edgeStyle=orthogonalEdgeStyle;rounded=0;orthogonalLoop=1;jettySize=auto;html=1;exitX=0.5;exitY=1;exitDx=0;exitDy=0;" parent="1" source="Q4-nXhtBB_RPtPYhB7_e-43" target="Q4-nXhtBB_RPtPYhB7_e-45" edge="1">
          <mxGeometry relative="1" as="geometry">
            <mxPoint x="420" y="410" as="targetPoint" />
          </mxGeometry>
        </mxCell>
        <mxCell id="Q4-nXhtBB_RPtPYhB7_e-43" value="&lt;span style=&quot;font-size: 24px&quot;&gt;Selection menu&lt;/span&gt;" style="rounded=0;whiteSpace=wrap;html=1;" parent="1" vertex="1">
          <mxGeometry x="380" y="160" width="120" height="60" as="geometry" />
        </mxCell>
        <mxCell id="Q4-nXhtBB_RPtPYhB7_e-61" style="edgeStyle=orthogonalEdgeStyle;rounded=0;orthogonalLoop=1;jettySize=auto;html=1;entryX=1;entryY=0.5;entryDx=0;entryDy=0;" parent="1" source="Q4-nXhtBB_RPtPYhB7_e-45" target="Q4-nXhtBB_RPtPYhB7_e-59" edge="1">
          <mxGeometry relative="1" as="geometry" />
        </mxCell>
        <mxCell id="SrqXO9nkxgBF6gVPvsZE-2" value="" style="edgeStyle=orthogonalEdgeStyle;rounded=0;orthogonalLoop=1;jettySize=auto;html=1;" edge="1" parent="1" source="Q4-nXhtBB_RPtPYhB7_e-45" target="SrqXO9nkxgBF6gVPvsZE-1">
          <mxGeometry relative="1" as="geometry" />
        </mxCell>
        <mxCell id="Q4-nXhtBB_RPtPYhB7_e-45" value="&lt;span style=&quot;font-size: 24px&quot;&gt;PokerTable&lt;/span&gt;" style="rounded=0;whiteSpace=wrap;html=1;" parent="1" vertex="1">
          <mxGeometry x="360" y="250" width="160" height="80" as="geometry" />
        </mxCell>
        <mxCell id="SrqXO9nkxgBF6gVPvsZE-4" value="" style="edgeStyle=orthogonalEdgeStyle;rounded=0;orthogonalLoop=1;jettySize=auto;html=1;" edge="1" parent="1" source="Q4-nXhtBB_RPtPYhB7_e-59" target="SrqXO9nkxgBF6gVPvsZE-3">
          <mxGeometry relative="1" as="geometry">
            <Array as="points">
              <mxPoint x="160" y="345" />
              <mxPoint x="250" y="345" />
            </Array>
          </mxGeometry>
        </mxCell>
        <mxCell id="SrqXO9nkxgBF6gVPvsZE-7" value="" style="edgeStyle=orthogonalEdgeStyle;rounded=0;orthogonalLoop=1;jettySize=auto;html=1;" edge="1" parent="1" source="Q4-nXhtBB_RPtPYhB7_e-59" target="SrqXO9nkxgBF6gVPvsZE-6">
          <mxGeometry relative="1" as="geometry">
            <Array as="points">
              <mxPoint x="150" y="355" />
              <mxPoint x="180" y="355" />
            </Array>
          </mxGeometry>
        </mxCell>
        <mxCell id="Q4-nXhtBB_RPtPYhB7_e-59" value="&lt;font style=&quot;font-size: 24px&quot;&gt;UserActions&lt;/font&gt;" style="rounded=0;whiteSpace=wrap;html=1;" parent="1" vertex="1">
          <mxGeometry x="20" y="260" width="150" height="60" as="geometry" />
        </mxCell>
        <mxCell id="SrqXO9nkxgBF6gVPvsZE-5" style="edgeStyle=orthogonalEdgeStyle;rounded=0;orthogonalLoop=1;jettySize=auto;html=1;entryX=1;entryY=0.5;entryDx=0;entryDy=0;" edge="1" parent="1" source="SrqXO9nkxgBF6gVPvsZE-1" target="SrqXO9nkxgBF6gVPvsZE-3">
          <mxGeometry relative="1" as="geometry" />
        </mxCell>
        <mxCell id="SrqXO9nkxgBF6gVPvsZE-1" value="&lt;span style=&quot;font-size: 24px&quot;&gt;Place&lt;/span&gt;" style="whiteSpace=wrap;html=1;rounded=0;" vertex="1" parent="1">
          <mxGeometry x="380" y="360" width="120" height="60" as="geometry" />
        </mxCell>
        <mxCell id="SrqXO9nkxgBF6gVPvsZE-3" value="&lt;span style=&quot;font-size: 24px&quot;&gt;SitPlace&lt;/span&gt;" style="whiteSpace=wrap;html=1;rounded=0;" vertex="1" parent="1">
          <mxGeometry x="190" y="310" width="120" height="60" as="geometry" />
        </mxCell>
        <mxCell id="SrqXO9nkxgBF6gVPvsZE-6" value="&lt;span style=&quot;font-size: 24px&quot;&gt;TakeCard&lt;/span&gt;" style="whiteSpace=wrap;html=1;rounded=0;" vertex="1" parent="1">
          <mxGeometry x="190" y="383" width="120" height="60" as="geometry" />
        </mxCell>
        <mxCell id="SrqXO9nkxgBF6gVPvsZE-15" value="" style="edgeStyle=orthogonalEdgeStyle;rounded=0;orthogonalLoop=1;jettySize=auto;html=1;" edge="1" parent="1" source="SrqXO9nkxgBF6gVPvsZE-9" target="SrqXO9nkxgBF6gVPvsZE-12">
          <mxGeometry relative="1" as="geometry">
            <Array as="points">
              <mxPoint x="250" y="570" />
              <mxPoint x="250" y="570" />
            </Array>
          </mxGeometry>
        </mxCell>
        <mxCell id="SrqXO9nkxgBF6gVPvsZE-9" value="&lt;span style=&quot;font-size: 24px&quot;&gt;FinishTake&lt;/span&gt;" style="rounded=0;whiteSpace=wrap;html=1;" vertex="1" parent="1">
          <mxGeometry x="190" y="450" width="120" height="60" as="geometry" />
        </mxCell>
        <mxCell id="SrqXO9nkxgBF6gVPvsZE-10" style="edgeStyle=orthogonalEdgeStyle;rounded=0;orthogonalLoop=1;jettySize=auto;html=1;" edge="1" parent="1" source="Q4-nXhtBB_RPtPYhB7_e-59" target="SrqXO9nkxgBF6gVPvsZE-9">
          <mxGeometry relative="1" as="geometry">
            <mxPoint x="95" y="470" as="targetPoint" />
            <mxPoint x="95" y="320" as="sourcePoint" />
            <Array as="points">
              <mxPoint x="140" y="480" />
            </Array>
          </mxGeometry>
        </mxCell>
        <mxCell id="SrqXO9nkxgBF6gVPvsZE-19" style="edgeStyle=orthogonalEdgeStyle;rounded=0;orthogonalLoop=1;jettySize=auto;html=1;entryX=0;entryY=0.5;entryDx=0;entryDy=0;" edge="1" parent="1" source="SrqXO9nkxgBF6gVPvsZE-12" target="SrqXO9nkxgBF6gVPvsZE-18">
          <mxGeometry relative="1" as="geometry" />
        </mxCell>
        <mxCell id="SrqXO9nkxgBF6gVPvsZE-12" value="&lt;span style=&quot;font-size: 24px&quot;&gt;Scorer&lt;/span&gt;" style="whiteSpace=wrap;html=1;rounded=0;" vertex="1" parent="1">
          <mxGeometry x="170" y="570" width="180" height="60" as="geometry" />
        </mxCell>
        <mxCell id="SrqXO9nkxgBF6gVPvsZE-16" value="&lt;span style=&quot;font-size: 24px&quot;&gt;RevengeMenu&lt;/span&gt;" style="rounded=0;whiteSpace=wrap;html=1;" vertex="1" parent="1">
          <mxGeometry x="670" y="570" width="200" height="60" as="geometry" />
        </mxCell>
        <mxCell id="SrqXO9nkxgBF6gVPvsZE-20" style="edgeStyle=orthogonalEdgeStyle;rounded=0;orthogonalLoop=1;jettySize=auto;html=1;entryX=0;entryY=0.5;entryDx=0;entryDy=0;" edge="1" parent="1" source="SrqXO9nkxgBF6gVPvsZE-18" target="SrqXO9nkxgBF6gVPvsZE-16">
          <mxGeometry relative="1" as="geometry" />
        </mxCell>
        <mxCell id="SrqXO9nkxgBF6gVPvsZE-22" style="edgeStyle=orthogonalEdgeStyle;rounded=0;orthogonalLoop=1;jettySize=auto;html=1;entryX=0;entryY=0.5;entryDx=0;entryDy=0;" edge="1" parent="1" source="SrqXO9nkxgBF6gVPvsZE-18" target="SrqXO9nkxgBF6gVPvsZE-21">
          <mxGeometry relative="1" as="geometry" />
        </mxCell>
        <mxCell id="SrqXO9nkxgBF6gVPvsZE-18" value="&lt;span style=&quot;font-size: 24px&quot;&gt;Comparator&lt;/span&gt;" style="rounded=0;whiteSpace=wrap;html=1;" vertex="1" parent="1">
          <mxGeometry x="440" y="570" width="140" height="60" as="geometry" />
        </mxCell>
        <mxCell id="SrqXO9nkxgBF6gVPvsZE-23" style="edgeStyle=orthogonalEdgeStyle;rounded=0;orthogonalLoop=1;jettySize=auto;html=1;exitX=1;exitY=0.5;exitDx=0;exitDy=0;entryX=0.5;entryY=0;entryDx=0;entryDy=0;" edge="1" parent="1" source="SrqXO9nkxgBF6gVPvsZE-21" target="SrqXO9nkxgBF6gVPvsZE-16">
          <mxGeometry relative="1" as="geometry" />
        </mxCell>
        <mxCell id="SrqXO9nkxgBF6gVPvsZE-21" value="&lt;span style=&quot;font-size: 24px&quot;&gt;Winer&lt;/span&gt;" style="rounded=0;whiteSpace=wrap;html=1;" vertex="1" parent="1">
          <mxGeometry x="570" y="443" width="120" height="60" as="geometry" />
        </mxCell>
      </root>
    </mxGraphModel>
  </diagram>
</mxfile>
